<?xml version="1.0" encoding="UTF-8" standalone="no"?>
<svg
   xmlns:i="http://ns.adobe.com/AdobeIllustrator/10.0/"
   xmlns:dc="http://purl.org/dc/elements/1.1/"
   xmlns:cc="http://creativecommons.org/ns#"
   xmlns:rdf="http://www.w3.org/1999/02/22-rdf-syntax-ns#"
   xmlns:svg="http://www.w3.org/2000/svg"
   xmlns="http://www.w3.org/2000/svg"
   xmlns:sodipodi="http://sodipodi.sourceforge.net/DTD/sodipodi-0.dtd"
   xmlns:inkscape="http://www.inkscape.org/namespaces/inkscape"
   height="104.50803"
   width="103.83271"
   version="1.1"
   x="0px"
   y="0px"
   viewBox="0 0 103.83271 104.50803"
   style="fill:#1a1a1a"
   xml:space="preserve"
   id="svg26"
   sodipodi:docname="kalk.svg"
   inkscape:version="0.92.4 (5da689c313, 2019-01-14)"
   inkscape:export-filename="C:\code\kalk\img\kalk.png"
   inkscape:export-xdpi="497.48999"
   inkscape:export-ydpi="497.48999"
   inkscape:label="kalk"><metadata
     id="metadata32"><rdf:RDF><cc:Work
         rdf:about=""><dc:format>image/svg+xml</dc:format><dc:type
           rdf:resource="http://purl.org/dc/dcmitype/StillImage" /><dc:title /></cc:Work></rdf:RDF></metadata><defs
     id="defs30"><clipPath
       clipPathUnits="userSpaceOnUse"
       id="clipPath957"><rect
         style="fill:#fffffe;fill-opacity:1;stroke:#6c5353;stroke-width:1;stroke-miterlimit:4;stroke-dasharray:none;stroke-opacity:1"
         id="rect959"
         width="100.68359"
         height="100.68359"
         x="-1.2695312"
         y="-2.242188" /></clipPath><clipPath
       clipPathUnits="userSpaceOnUse"
       id="clipPath963"><rect
         style="fill:#fffffe;fill-opacity:1;stroke:#6c5353;stroke-width:1;stroke-miterlimit:4;stroke-dasharray:none;stroke-opacity:1"
         id="rect965"
         width="109.17969"
         height="109.17969"
         x="-5.2734375"
         y="-4.7812505" /></clipPath><clipPath
       clipPathUnits="userSpaceOnUse"
       id="clipPath935"><rect
         style="fill:#fffffe;fill-opacity:1;stroke:#6c5353;stroke-width:1;stroke-miterlimit:4;stroke-dasharray:none;stroke-opacity:1"
         id="rect937"
         width="103.94469"
         height="104.56342"
         x="-3.6387706"
         y="-4.3192339" /></clipPath></defs><sodipodi:namedview
     pagecolor="#ffffff"
     bordercolor="#666666"
     borderopacity="1"
     objecttolerance="10"
     gridtolerance="10"
     guidetolerance="10"
     inkscape:pageopacity="0"
     inkscape:pageshadow="2"
     inkscape:window-width="2731"
     inkscape:window-height="1728"
     id="namedview28"
     showgrid="false"
     inkscape:zoom="22.627416"
     inkscape:cx="49.646544"
     inkscape:cy="50.451443"
     inkscape:window-x="410"
     inkscape:window-y="246"
     inkscape:window-maximized="0"
     inkscape:current-layer="g931"
     fit-margin-top="0"
     fit-margin-left="0"
     fit-margin-right="0"
     fit-margin-bottom="0"
     inkscape:pagecheckerboard="true" /><g
     transform="translate(3.8155473,4.5290174)"
     clip-path="url(#clipPath935)"
     inkscape:label="#g950"
     id="g931"><circle
       cy="47.767673"
       cx="47.765663"
       id="circle856"
       style="fill:#fffffe;fill-opacity:1;stroke:#202020;stroke-width:0;stroke-miterlimit:4;stroke-dasharray:none;stroke-opacity:1"
       r="18.994507" /><g
       id="g929"
       style="fill:#6c5353"
       transform="translate(-35.234638,-2289.0708)"><g
         i:extraneous="self"
         id="g927"
         style="fill:#6c5353"><g
           id="g925"
           style="fill:#6c5353"><path
             d="m 85.008178,2326.7612 c -1,-0.2 -1.9,0.5 -2.1,1.4 l -3.2,16.8 c -0.2,1 0.4,1.9 1.4,2.1 0.1,0 0.2,0 0.3,0 0.8,0 1.6,-0.6 1.7,-1.4 l 3.2,-16.8 c 0.3,-1 -0.3,-2 -1.3,-2.1 z"
             id="path917"
             inkscape:connector-curvature="0"
             style="fill:#5599ff" /><path
             d="m 75.708178,2329.2612 c -0.7,-0.7 -1.9,-0.6 -2.5,0.1 l -5.5,6 c -0.6,0.7 -0.6,1.7 0,2.4 l 5.5,6 c 0.4,0.4 0.8,0.6 1.3,0.6 0.4,0 0.9,-0.2 1.2,-0.5 0.7,-0.7 0.8,-1.8 0.1,-2.5 l -4.4,-4.8 4.4,-4.8 c 0.7,-0.7 0.7,-1.9 -0.1,-2.5 z"
             id="path919"
             inkscape:connector-curvature="0"
             style="fill:#ff7f2a" /><path
             d="m 90.508178,2329.2612 c -0.7,0.7 -0.8,1.8 -0.1,2.5 l 4.4,4.8 -4.4,4.8 c -0.7,0.7 -0.6,1.9 0.1,2.5 0.3,0.3 0.8,0.5 1.2,0.5 0.5,0 1,-0.2 1.3,-0.6 l 5.5,-6 c 0.6,-0.7 0.6,-1.7 0,-2.4 l -5.5,-6 c -0.7,-0.8 -1.8,-0.8 -2.5,-0.1 z"
             id="path921"
             inkscape:connector-curvature="0"
             style="fill:#ff7f2a" /><path
             d="m 123.50818,2329.7612 c -3.3,0 -6,2.2 -6.8,5.2 h -9.2 c -0.4,-5.3 -2.5,-10.2 -5.8,-14 l 6.5,-6.5 c 1,0.6 2.2,1 3.5,1 3.9,0 7.1,-3.2 7.1,-7.1 0,-3.9 -3.2,-7.1 -7.1,-7.1 -3.9,0 -7.1,3.2 -7.1,7.1 0,1.3 0.4,2.5 1,3.5 l -6.500002,6.5 c -3.8,-3.3 -8.7,-5.4 -14,-5.8 v -9.2 c 3,-0.8 5.2,-3.6 5.2,-6.8 0,-3.9 -3.2,-7.1 -7.1,-7.1 -3.9,0 -7.1,3.2 -7.1,7.1 0,3.3 2.2,6 5.2,6.8 v 9.2 c -5.3,0.4 -10.2,2.5 -14,5.8 l -6.5,-6.5 c 0.6,-1 1,-2.2 1,-3.5 0,-3.9 -3.2,-7.1 -7.1,-7.1 -3.9,0 -7.1,3.2 -7.1,7.1 0,3.9 3.2,7.1 7.1,7.1 1.3,0 2.5,-0.4 3.5,-1 l 6.5,6.5 c -3.3,3.8 -5.4,8.7 -5.8,14 h -9.2 c -0.8,-3 -3.6,-5.2 -6.8,-5.2 -3.9,0 -7.1,3.2 -7.1,7.1 0,3.9 3.2,7.1 7.1,7.1 3.3,0 6,-2.2 6.8,-5.2 h 9.2 c 0.4,5.3 2.5,10.2 5.8,14 l -6.5,6.5 c -1,-0.6 -2.2,-1 -3.5,-1 -3.9,0 -7.1,3.2 -7.1,7.1 0,3.9 3.2,7.1 7.1,7.1 3.9,0 7.1,-3.2 7.1,-7.1 0,-1.3 -0.4,-2.5 -1,-3.5 l 6.5,-6.5 c 3.8,3.3 8.7,5.4 14,5.8 v 9.2 c -3,0.8 -5.2,3.6 -5.2,6.8 0,3.9 3.2,7.1 7.1,7.1 3.9,0 7.1,-3.2 7.1,-7.1 0,-3.3 -2.2,-6 -5.2,-6.8 v -9.2 c 5.3,-0.4 10.2,-2.5 14,-5.8 l 6.500002,6.5 c -0.6,1 -1,2.2 -1,3.5 0,3.9 3.2,7.1 7.1,7.1 3.9,0 7.1,-3.2 7.1,-7.1 0,-3.9 -3.2,-7.1 -7.1,-7.1 -1.3,0 -2.5,0.4 -3.5,1 l -6.5,-6.5 c 3.3,-3.8 5.4,-8.7 5.8,-14 h 9.2 c 0.8,3 3.6,5.2 6.8,5.2 3.9,0 7.1,-3.2 7.1,-7.1 0,-3.9 -3.2,-7.1 -7.1,-7.1 z m -40.400002,28 c -11.5,0 -20.9,-9.4 -20.9,-20.9 0,-11.5 9.4,-20.9 20.9,-20.9 11.5,0 20.900002,9.4 20.900002,20.9 0,11.5 -9.400002,20.9 -20.900002,20.9 z"
             id="path923"
             inkscape:connector-curvature="0"
             style="fill:#ffffff;fill-opacity:1;stroke:#202020;stroke-width:4;stroke-miterlimit:4;stroke-dasharray:none;stroke-opacity:1" /></g></g></g></g></svg>